<?xml version="1.0" standalone="no"?>
<!DOCTYPE svg PUBLIC "-//W3C//DTD SVG 20010904//EN"
 "http://www.w3.org/TR/2001/REC-SVG-20010904/DTD/svg10.dtd">
<svg version="1.0" xmlns="http://www.w3.org/2000/svg"
 width="131.000000pt" height="38.000000pt" viewBox="0 0 131.000000 38.000000"
 preserveAspectRatio="xMidYMid meet">

<g transform="translate(0.000000,38.000000) scale(0.100000,-0.100000)"
fill="#000000" stroke="none">
<path d="M206 345 c-9 -9 -16 -25 -16 -36 0 -14 -7 -19 -25 -19 -20 0 -25 -5
-25 -25 0 -24 2 -25 65 -25 l65 0 0 -83 c0 -80 1 -83 23 -82 43 2 47 11 47
116 0 96 -1 99 -22 99 -16 0 -28 11 -38 33 -17 37 -49 46 -74 22z m64 -36 c0
-17 -5 -20 -32 -17 -37 4 -45 19 -23 42 21 20 55 5 55 -25z"/>
<path d="M503 283 c82 -2 212 -2 290 0 78 1 12 3 -148 3 -159 0 -223 -2 -142
-3z"/>
<path d="M377 199 c-25 -55 -26 -78 -3 -46 16 21 56 23 56 2 0 -8 5 -15 11
-15 7 0 8 7 4 18 -4 9 -12 31 -17 47 -18 51 -26 50 -51 -6z m43 -11 c0 -5 -7
-8 -15 -8 -15 0 -20 21 -8 33 7 7 23 -11 23 -25z"/>
<path d="M520 232 c0 -13 -7 -18 -21 -18 -12 1 -26 -7 -33 -17 -16 -25 4 -51
43 -55 l31 -3 0 55 c0 31 -4 56 -10 56 -5 0 -10 -8 -10 -18z m0 -52 c0 -25
-17 -35 -35 -20 -11 9 -12 17 -5 31 12 22 40 14 40 -11z"/>
<path d="M917 238 c-2 -7 -1 -33 3 -58 l7 -45 2 58 c1 56 -2 69 -12 45z"/>
<path d="M1090 195 c0 -32 3 -55 7 -52 7 8 5 98 -2 105 -3 3 -5 -21 -5 -53z"/>
<path d="M830 189 c0 -34 4 -48 11 -43 6 3 9 19 7 35 -6 37 5 37 21 2 12 -27
13 -27 27 -8 8 10 14 24 14 29 0 6 -7 3 -15 -7 -13 -18 -14 -17 -30 12 -23 45
-35 38 -35 -20z"/>
<path d="M1248 228 c-2 -7 -2 -29 2 -48 3 -25 11 -36 25 -38 15 -2 16 -1 7 6
-8 5 -13 22 -12 38 3 42 1 54 -9 54 -5 0 -11 -6 -13 -12z"/>
<path d="M152 223 l-92 -4 0 -69 c0 -37 4 -70 10 -72 5 -1 48 -2 95 0 l85 3 0
75 c0 41 -1 73 -2 72 -2 -1 -45 -4 -96 -5z m6 -81 c9 2 21 13 27 26 13 29 28
29 20 0 -8 -25 -32 -48 -51 -48 -17 0 -55 50 -47 63 3 5 12 -2 20 -17 9 -16
21 -26 31 -24z"/>
<path d="M560 201 c-15 -29 3 -61 35 -61 13 0 27 5 30 10 4 7 -2 9 -18 5 -14
-4 -28 -2 -31 4 -5 7 4 11 24 11 27 0 31 3 28 23 -4 31 -52 36 -68 8z m55 -1
c4 -6 -5 -10 -20 -10 -15 0 -24 4 -20 10 3 6 12 10 20 10 8 0 17 -4 20 -10z"/>
<path d="M650 165 c0 -30 5 -55 10 -55 6 0 10 7 10 15 0 8 8 15 19 15 30 0 46
26 33 55 -9 19 -19 25 -42 25 -30 0 -30 0 -30 -55z m58 12 c-2 -11 -9 -22 -15
-25 -16 -4 -27 22 -19 43 8 22 38 6 34 -18z"/>
<path d="M744 209 c-5 -9 -2 -10 10 -6 10 4 23 4 29 0 7 -4 2 -9 -13 -13 -39
-9 -33 -44 8 -48 33 -3 33 -3 30 35 -3 33 -7 38 -30 41 -14 2 -30 -2 -34 -9z
m46 -38 c0 -14 -18 -23 -30 -16 -6 4 -8 11 -5 16 8 12 35 12 35 0z"/>
<path d="M966 212 c-3 -5 5 -8 17 -8 18 1 21 -4 19 -26 -2 -14 2 -29 7 -33 15
-9 14 48 -1 63 -14 14 -35 16 -42 4z"/>
<path d="M1041 175 c2 -33 3 -35 6 -10 3 16 12 35 21 41 15 12 15 13 -5 11
-20 -1 -23 -6 -22 -42z"/>
<path d="M1127 203 c-14 -16 -14 -20 4 -42 10 -13 19 -19 19 -14 0 5 -5 14
-11 20 -8 8 -8 17 0 32 14 26 9 27 -12 4z"/>
<path d="M1172 208 c-15 -15 -15 -41 0 -56 14 -14 44 -16 52 -3 3 4 -5 6 -18
4 -15 -3 -25 1 -29 11 -5 12 0 16 16 17 17 1 18 2 5 6 -22 6 -24 23 -3 23 9 0
18 -7 21 -15 4 -8 10 -15 15 -15 6 0 5 9 -1 20 -12 22 -40 26 -58 8z"/>
<path d="M960 175 c-14 -17 -5 -35 18 -35 13 0 13 2 -3 14 -18 13 -18 13 1 24
10 6 14 12 8 12 -6 0 -17 -7 -24 -15z"/>
<path d="M863 63 c82 -2 212 -2 290 0 78 1 12 3 -148 3 -159 0 -223 -2 -142
-3z"/>
</g>
</svg>
